solid OpenSCAD_Model
  facet normal 0 0 -1
    outer loop
      vertex 0 43.32000000000001 0
      vertex 0 45.32000000000001 0
      vertex 72.86666666666667 44.32000000000001 0
    endloop
  endfacet
  facet normal 0 0 -1
    outer loop
      vertex 0 43.32000000000001 0
      vertex 72.86666666666667 44.32000000000001 0
      vertex 72.86666666666667 43.32000000000001 0
    endloop
  endfacet
  facet normal 0 0 -1
    outer loop
      vertex 0 45.32000000000001 0
      vertex 72.86666666666667 45.32000000000001 0
      vertex 72.86666666666667 44.32000000000001 0
    endloop
  endfacet
  facet normal -1 0 0
    outer loop
      vertex 0 43.32000000000001 0
      vertex 0 45.32000000000001 40
      vertex 0 45.32000000000001 0
    endloop
  endfacet
  facet normal 0 -1 0
    outer loop
      vertex 0 43.32000000000001 0
      vertex 72.86666666666667 43.32000000000001 0
      vertex 0 43.32000000000001 40
    endloop
  endfacet
  facet normal 0 1 0
    outer loop
      vertex 0 45.32000000000001 0
      vertex 72.86666666666667 45.32000000000001 40
      vertex 72.86666666666667 45.32000000000001 0
    endloop
  endfacet
  facet normal 0 0 -1
    outer loop
      vertex 74.86666666666667 43.32000000000001 0
      vertex 74.86666666666667 44.32000000000001 0
      vertex 109.80000000000001 44.32000000000001 0
    endloop
  endfacet
  facet normal 0 0 -1
    outer loop
      vertex 74.86666666666667 44.32000000000001 0
      vertex 74.86666666666667 45.32000000000001 0
      vertex 109.80000000000001 45.32000000000001 0
    endloop
  endfacet
  facet normal 0 0 -1
    outer loop
      vertex 74.86666666666667 43.32000000000001 0
      vertex 109.80000000000001 44.32000000000001 0
      vertex 109.80000000000001 43.32000000000001 0
    endloop
  endfacet
  facet normal 0 0 -1
    outer loop
      vertex 74.86666666666667 44.32000000000001 0
      vertex 109.80000000000001 45.32000000000001 0
      vertex 109.80000000000001 44.32000000000001 0
    endloop
  endfacet
  facet normal 0 -1 0
    outer loop
      vertex 74.86666666666667 43.32000000000001 0
      vertex 109.80000000000001 43.32000000000001 0
      vertex 74.86666666666667 43.32000000000001 40
    endloop
  endfacet
  facet normal 0 1 0
    outer loop
      vertex 74.86666666666667 45.32000000000001 0
      vertex 109.80000000000001 45.32000000000001 40
      vertex 109.80000000000001 45.32000000000001 0
    endloop
  endfacet
  facet normal -1 0 0
    outer loop
      vertex 0 43.32000000000001 0
      vertex 0 43.32000000000001 40
      vertex 0 45.32000000000001 40
    endloop
  endfacet
  facet normal 0 1 0
    outer loop
      vertex 0 45.32000000000001 0
      vertex 0 45.32000000000001 40
      vertex 72.86666666666667 45.32000000000001 40
    endloop
  endfacet
  facet normal 0 -1 0
    outer loop
      vertex 72.86666666666667 43.32000000000001 0
      vertex 72.86666666666667 43.32000000000001 40
      vertex 0 43.32000000000001 40
    endloop
  endfacet
  facet normal 0 0 1
    outer loop
      vertex 0 43.32000000000001 40
      vertex 72.86666666666667 44.32000000000001 40
      vertex 0 45.32000000000001 40
    endloop
  endfacet
  facet normal 0 0 1
    outer loop
      vertex 0 43.32000000000001 40
      vertex 72.86666666666667 43.32000000000001 40
      vertex 72.86666666666667 44.32000000000001 40
    endloop
  endfacet
  facet normal 0 0 1
    outer loop
      vertex 0 45.32000000000001 40
      vertex 72.86666666666667 44.32000000000001 40
      vertex 72.86666666666667 45.32000000000001 40
    endloop
  endfacet
  facet normal 0 1 0
    outer loop
      vertex 74.86666666666667 45.32000000000001 0
      vertex 74.86666666666667 45.32000000000001 40
      vertex 109.80000000000001 45.32000000000001 40
    endloop
  endfacet
  facet normal 0 -1 0
    outer loop
      vertex 109.80000000000001 43.32000000000001 0
      vertex 109.80000000000001 43.32000000000001 40
      vertex 74.86666666666667 43.32000000000001 40
    endloop
  endfacet
  facet normal 0 0 1
    outer loop
      vertex 74.86666666666667 43.32000000000001 40
      vertex 109.80000000000001 44.32000000000001 40
      vertex 74.86666666666667 44.32000000000001 40
    endloop
  endfacet
  facet normal 0 0 1
    outer loop
      vertex 74.86666666666667 44.32000000000001 40
      vertex 109.80000000000001 44.32000000000001 40
      vertex 74.86666666666667 45.32000000000001 40
    endloop
  endfacet
  facet normal 0 0 1
    outer loop
      vertex 74.86666666666667 43.32000000000001 40
      vertex 109.80000000000001 43.32000000000001 40
      vertex 109.80000000000001 44.32000000000001 40
    endloop
  endfacet
  facet normal 0 0 1
    outer loop
      vertex 109.80000000000001 44.32000000000001 40
      vertex 109.80000000000001 45.32000000000001 40
      vertex 74.86666666666667 45.32000000000001 40
    endloop
  endfacet
  facet normal 0 0 -1
    outer loop
      vertex 111.80000000000001 43.32000000000001 0
      vertex 111.80000000000001 44.32000000000001 0
      vertex 146.73333333333335 43.32000000000001 0
    endloop
  endfacet
  facet normal 0 0 -1
    outer loop
      vertex 111.80000000000001 44.32000000000001 0
      vertex 111.80000000000001 45.32000000000001 0
      vertex 146.73333333333335 45.32000000000001 0
    endloop
  endfacet
  facet normal 0 0 -1
    outer loop
      vertex 111.80000000000001 44.32000000000001 0
      vertex 146.73333333333335 44.32000000000001 0
      vertex 146.73333333333335 43.32000000000001 0
    endloop
  endfacet
  facet normal 0 0 -1
    outer loop
      vertex 111.80000000000001 44.32000000000001 0
      vertex 146.73333333333335 45.32000000000001 0
      vertex 146.73333333333335 44.32000000000001 0
    endloop
  endfacet
  facet normal 0 -1 0
    outer loop
      vertex 111.80000000000001 43.32000000000001 0
      vertex 146.73333333333335 43.32000000000001 0
      vertex 111.80000000000001 43.32000000000001 40
    endloop
  endfacet
  facet normal 0 1 0
    outer loop
      vertex 111.80000000000001 45.32000000000001 0
      vertex 146.73333333333335 45.32000000000001 40
      vertex 146.73333333333335 45.32000000000001 0
    endloop
  endfacet
  facet normal 0 0 -1
    outer loop
      vertex 148.73333333333335 43.32000000000001 0
      vertex 148.73333333333335 44.32000000000001 0
      vertex 221.60000000000002 43.32000000000001 0
    endloop
  endfacet
  facet normal 0 0 -1
    outer loop
      vertex 148.73333333333335 44.32000000000001 0
      vertex 148.73333333333335 45.32000000000001 0
      vertex 221.60000000000002 45.32000000000001 0
    endloop
  endfacet
  facet normal 0 0 -1
    outer loop
      vertex 148.73333333333335 44.32000000000001 0
      vertex 221.60000000000002 45.32000000000001 0
      vertex 221.60000000000002 43.32000000000001 0
    endloop
  endfacet
  facet normal 0 -1 0
    outer loop
      vertex 148.73333333333335 43.32000000000001 0
      vertex 221.60000000000002 43.32000000000001 0
      vertex 148.73333333333335 43.32000000000001 40
    endloop
  endfacet
  facet normal 0 1 0
    outer loop
      vertex 148.73333333333335 45.32000000000001 0
      vertex 221.60000000000002 45.32000000000001 40
      vertex 221.60000000000002 45.32000000000001 0
    endloop
  endfacet
  facet normal 1 0 0
    outer loop
      vertex 221.60000000000002 43.32000000000001 0
      vertex 221.60000000000002 45.32000000000001 0
      vertex 221.60000000000002 43.32000000000001 40
    endloop
  endfacet
  facet normal 0 1 0
    outer loop
      vertex 111.80000000000001 45.32000000000001 0
      vertex 111.80000000000001 45.32000000000001 40
      vertex 146.73333333333335 45.32000000000001 40
    endloop
  endfacet
  facet normal 0 -1 0
    outer loop
      vertex 146.73333333333335 43.32000000000001 0
      vertex 146.73333333333335 43.32000000000001 40
      vertex 111.80000000000001 43.32000000000001 40
    endloop
  endfacet
  facet normal 0 0 1
    outer loop
      vertex 111.80000000000001 43.32000000000001 40
      vertex 146.73333333333335 43.32000000000001 40
      vertex 111.80000000000001 44.32000000000001 40
    endloop
  endfacet
  facet normal 0 0 1
    outer loop
      vertex 111.80000000000001 44.32000000000001 40
      vertex 146.73333333333335 44.32000000000001 40
      vertex 111.80000000000001 45.32000000000001 40
    endloop
  endfacet
  facet normal 0 0 1
    outer loop
      vertex 111.80000000000001 44.32000000000001 40
      vertex 146.73333333333335 43.32000000000001 40
      vertex 146.73333333333335 44.32000000000001 40
    endloop
  endfacet
  facet normal 0 0 1
    outer loop
      vertex 146.73333333333335 44.32000000000001 40
      vertex 146.73333333333335 45.32000000000001 40
      vertex 111.80000000000001 45.32000000000001 40
    endloop
  endfacet
  facet normal 0 1 0
    outer loop
      vertex 148.73333333333335 45.32000000000001 0
      vertex 148.73333333333335 45.32000000000001 40
      vertex 221.60000000000002 45.32000000000001 40
    endloop
  endfacet
  facet normal 0 -1 0
    outer loop
      vertex 221.60000000000002 43.32000000000001 0
      vertex 221.60000000000002 43.32000000000001 40
      vertex 148.73333333333335 43.32000000000001 40
    endloop
  endfacet
  facet normal 1 0 0
    outer loop
      vertex 221.60000000000002 45.32000000000001 0
      vertex 221.60000000000002 45.32000000000001 40
      vertex 221.60000000000002 43.32000000000001 40
    endloop
  endfacet
  facet normal 0 0 1
    outer loop
      vertex 148.73333333333335 43.32000000000001 40
      vertex 221.60000000000002 43.32000000000001 40
      vertex 148.73333333333335 44.32000000000001 40
    endloop
  endfacet
  facet normal 0 0 1
    outer loop
      vertex 148.73333333333335 44.32000000000001 40
      vertex 221.60000000000002 45.32000000000001 40
      vertex 148.73333333333335 45.32000000000001 40
    endloop
  endfacet
  facet normal 0 0 1
    outer loop
      vertex 148.73333333333335 44.32000000000001 40
      vertex 221.60000000000002 43.32000000000001 40
      vertex 221.60000000000002 45.32000000000001 40
    endloop
  endfacet
  facet normal 0 0 -1
    outer loop
      vertex 0 87.64000000000001 0
      vertex 0 89.64000000000001 0
      vertex 72.86666666666667 88.64000000000001 0
    endloop
  endfacet
  facet normal 0 0 -1
    outer loop
      vertex 0 87.64000000000001 0
      vertex 72.86666666666667 88.64000000000001 0
      vertex 72.86666666666667 87.64000000000001 0
    endloop
  endfacet
  facet normal 0 0 -1
    outer loop
      vertex 72.86666666666667 88.64000000000001 0
      vertex 0 89.64000000000001 0
      vertex 72.86666666666667 89.64000000000001 0
    endloop
  endfacet
  facet normal -1 0 0
    outer loop
      vertex 0 87.64000000000001 0
      vertex 0 89.64000000000001 40
      vertex 0 89.64000000000001 0
    endloop
  endfacet
  facet normal 0 -1 0
    outer loop
      vertex 0 87.64000000000001 0
      vertex 72.86666666666667 87.64000000000001 0
      vertex 0 87.64000000000001 40
    endloop
  endfacet
  facet normal 0 1 0
    outer loop
      vertex 0 89.64000000000001 0
      vertex 72.86666666666667 89.64000000000001 40
      vertex 72.86666666666667 89.64000000000001 0
    endloop
  endfacet
  facet normal 0 0 -1
    outer loop
      vertex 74.86666666666667 87.64000000000001 0
      vertex 74.86666666666667 88.64000000000001 0
      vertex 109.80000000000001 88.64000000000001 0
    endloop
  endfacet
  facet normal 0 0 -1
    outer loop
      vertex 74.86666666666667 88.64000000000001 0
      vertex 74.86666666666667 89.64000000000001 0
      vertex 109.80000000000001 89.64000000000001 0
    endloop
  endfacet
  facet normal 0 0 -1
    outer loop
      vertex 74.86666666666667 87.64000000000001 0
      vertex 109.80000000000001 88.64000000000001 0
      vertex 109.80000000000001 87.64000000000001 0
    endloop
  endfacet
  facet normal 0 0 -1
    outer loop
      vertex 74.86666666666667 88.64000000000001 0
      vertex 109.80000000000001 89.64000000000001 0
      vertex 109.80000000000001 88.64000000000001 0
    endloop
  endfacet
  facet normal 0 -1 0
    outer loop
      vertex 74.86666666666667 87.64000000000001 0
      vertex 109.80000000000001 87.64000000000001 0
      vertex 74.86666666666667 87.64000000000001 40
    endloop
  endfacet
  facet normal 0 1 0
    outer loop
      vertex 74.86666666666667 89.64000000000001 0
      vertex 109.80000000000001 89.64000000000001 40
      vertex 109.80000000000001 89.64000000000001 0
    endloop
  endfacet
  facet normal -1 0 0
    outer loop
      vertex 0 87.64000000000001 0
      vertex 0 87.64000000000001 40
      vertex 0 89.64000000000001 40
    endloop
  endfacet
  facet normal 0 1 0
    outer loop
      vertex 0 89.64000000000001 0
      vertex 0 89.64000000000001 40
      vertex 72.86666666666667 89.64000000000001 40
    endloop
  endfacet
  facet normal 0 -1 0
    outer loop
      vertex 72.86666666666667 87.64000000000001 0
      vertex 72.86666666666667 87.64000000000001 40
      vertex 0 87.64000000000001 40
    endloop
  endfacet
  facet normal 0 0 1
    outer loop
      vertex 0 87.64000000000001 40
      vertex 72.86666666666667 88.64000000000001 40
      vertex 0 89.64000000000001 40
    endloop
  endfacet
  facet normal 0 0 1
    outer loop
      vertex 0 87.64000000000001 40
      vertex 72.86666666666667 87.64000000000001 40
      vertex 72.86666666666667 88.64000000000001 40
    endloop
  endfacet
  facet normal 0 0 1
    outer loop
      vertex 72.86666666666667 88.64000000000001 40
      vertex 72.86666666666667 89.64000000000001 40
      vertex 0 89.64000000000001 40
    endloop
  endfacet
  facet normal 0 1 0
    outer loop
      vertex 74.86666666666667 89.64000000000001 0
      vertex 74.86666666666667 89.64000000000001 40
      vertex 109.80000000000001 89.64000000000001 40
    endloop
  endfacet
  facet normal 0 -1 0
    outer loop
      vertex 109.80000000000001 87.64000000000001 0
      vertex 109.80000000000001 87.64000000000001 40
      vertex 74.86666666666667 87.64000000000001 40
    endloop
  endfacet
  facet normal 0 0 1
    outer loop
      vertex 74.86666666666667 87.64000000000001 40
      vertex 109.80000000000001 88.64000000000001 40
      vertex 74.86666666666667 88.64000000000001 40
    endloop
  endfacet
  facet normal 0 0 1
    outer loop
      vertex 74.86666666666667 88.64000000000001 40
      vertex 109.80000000000001 88.64000000000001 40
      vertex 74.86666666666667 89.64000000000001 40
    endloop
  endfacet
  facet normal 0 0 1
    outer loop
      vertex 74.86666666666667 87.64000000000001 40
      vertex 109.80000000000001 87.64000000000001 40
      vertex 109.80000000000001 88.64000000000001 40
    endloop
  endfacet
  facet normal 0 0 1
    outer loop
      vertex 109.80000000000001 88.64000000000001 40
      vertex 109.80000000000001 89.64000000000001 40
      vertex 74.86666666666667 89.64000000000001 40
    endloop
  endfacet
  facet normal 0 0 -1
    outer loop
      vertex 111.80000000000001 87.64000000000001 0
      vertex 111.80000000000001 88.64000000000001 0
      vertex 146.73333333333335 88.64000000000001 0
    endloop
  endfacet
  facet normal 0 0 -1
    outer loop
      vertex 111.80000000000001 88.64000000000001 0
      vertex 111.80000000000001 89.64000000000001 0
      vertex 146.73333333333335 89.64000000000001 0
    endloop
  endfacet
  facet normal 0 0 -1
    outer loop
      vertex 111.80000000000001 87.64000000000001 0
      vertex 146.73333333333335 88.64000000000001 0
      vertex 146.73333333333335 87.64000000000001 0
    endloop
  endfacet
  facet normal 0 0 -1
    outer loop
      vertex 111.80000000000001 88.64000000000001 0
      vertex 146.73333333333335 89.64000000000001 0
      vertex 146.73333333333335 88.64000000000001 0
    endloop
  endfacet
  facet normal 0 -1 0
    outer loop
      vertex 111.80000000000001 87.64000000000001 0
      vertex 146.73333333333335 87.64000000000001 0
      vertex 111.80000000000001 87.64000000000001 40
    endloop
  endfacet
  facet normal 0 1 0
    outer loop
      vertex 111.80000000000001 89.64000000000001 0
      vertex 146.73333333333335 89.64000000000001 40
      vertex 146.73333333333335 89.64000000000001 0
    endloop
  endfacet
  facet normal 0 0 -1
    outer loop
      vertex 148.73333333333335 87.64000000000001 0
      vertex 148.73333333333335 88.64000000000001 0
      vertex 221.60000000000002 87.64000000000001 0
    endloop
  endfacet
  facet normal 0 0 -1
    outer loop
      vertex 148.73333333333335 88.64000000000001 0
      vertex 148.73333333333335 89.64000000000001 0
      vertex 221.60000000000002 89.64000000000001 0
    endloop
  endfacet
  facet normal 0 0 -1
    outer loop
      vertex 148.73333333333335 88.64000000000001 0
      vertex 221.60000000000002 89.64000000000001 0
      vertex 221.60000000000002 87.64000000000001 0
    endloop
  endfacet
  facet normal 0 -1 0
    outer loop
      vertex 148.73333333333335 87.64000000000001 0
      vertex 221.60000000000002 87.64000000000001 0
      vertex 148.73333333333335 87.64000000000001 40
    endloop
  endfacet
  facet normal 0 1 0
    outer loop
      vertex 148.73333333333335 89.64000000000001 0
      vertex 221.60000000000002 89.64000000000001 40
      vertex 221.60000000000002 89.64000000000001 0
    endloop
  endfacet
  facet normal 1 0 0
    outer loop
      vertex 221.60000000000002 87.64000000000001 0
      vertex 221.60000000000002 89.64000000000001 0
      vertex 221.60000000000002 87.64000000000001 40
    endloop
  endfacet
  facet normal 0 1 0
    outer loop
      vertex 111.80000000000001 89.64000000000001 0
      vertex 111.80000000000001 89.64000000000001 40
      vertex 146.73333333333335 89.64000000000001 40
    endloop
  endfacet
  facet normal 0 -1 0
    outer loop
      vertex 146.73333333333335 87.64000000000001 0
      vertex 146.73333333333335 87.64000000000001 40
      vertex 111.80000000000001 87.64000000000001 40
    endloop
  endfacet
  facet normal 0 0 1
    outer loop
      vertex 111.80000000000001 87.64000000000001 40
      vertex 146.73333333333335 87.64000000000001 40
      vertex 111.80000000000001 88.64000000000001 40
    endloop
  endfacet
  facet normal 0 0 1
    outer loop
      vertex 111.80000000000001 88.64000000000001 40
      vertex 146.73333333333335 88.64000000000001 40
      vertex 111.80000000000001 89.64000000000001 40
    endloop
  endfacet
  facet normal 0 0 1
    outer loop
      vertex 111.80000000000001 88.64000000000001 40
      vertex 146.73333333333335 87.64000000000001 40
      vertex 146.73333333333335 88.64000000000001 40
    endloop
  endfacet
  facet normal 0 0 1
    outer loop
      vertex 146.73333333333335 88.64000000000001 40
      vertex 146.73333333333335 89.64000000000001 40
      vertex 111.80000000000001 89.64000000000001 40
    endloop
  endfacet
  facet normal 0 1 0
    outer loop
      vertex 148.73333333333335 89.64000000000001 0
      vertex 148.73333333333335 89.64000000000001 40
      vertex 221.60000000000002 89.64000000000001 40
    endloop
  endfacet
  facet normal 0 -1 0
    outer loop
      vertex 221.60000000000002 87.64000000000001 0
      vertex 221.60000000000002 87.64000000000001 40
      vertex 148.73333333333335 87.64000000000001 40
    endloop
  endfacet
  facet normal 1 0 0
    outer loop
      vertex 221.60000000000002 87.64000000000001 40
      vertex 221.60000000000002 89.64000000000001 0
      vertex 221.60000000000002 89.64000000000001 40
    endloop
  endfacet
  facet normal 0 0 1
    outer loop
      vertex 148.73333333333335 87.64000000000001 40
      vertex 221.60000000000002 87.64000000000001 40
      vertex 148.73333333333335 88.64000000000001 40
    endloop
  endfacet
  facet normal 0 0 1
    outer loop
      vertex 148.73333333333335 88.64000000000001 40
      vertex 221.60000000000002 89.64000000000001 40
      vertex 148.73333333333335 89.64000000000001 40
    endloop
  endfacet
  facet normal 0 0 1
    outer loop
      vertex 148.73333333333335 88.64000000000001 40
      vertex 221.60000000000002 87.64000000000001 40
      vertex 221.60000000000002 89.64000000000001 40
    endloop
  endfacet
  facet normal 0 0 -1
    outer loop
      vertex 0 131.96000000000004 0
      vertex 0 133.96000000000004 0
      vertex 72.86666666666667 132.96000000000004 0
    endloop
  endfacet
  facet normal 0 0 -1
    outer loop
      vertex 0 131.96000000000004 0
      vertex 72.86666666666667 132.96000000000004 0
      vertex 72.86666666666667 131.96000000000004 0
    endloop
  endfacet
  facet normal 0 0 -1
    outer loop
      vertex 0 133.96000000000004 0
      vertex 72.86666666666667 133.96000000000004 0
      vertex 72.86666666666667 132.96000000000004 0
    endloop
  endfacet
  facet normal -1 0 0
    outer loop
      vertex 0 131.96000000000004 0
      vertex 0 133.96000000000004 40
      vertex 0 133.96000000000004 0
    endloop
  endfacet
  facet normal 0 -1 0
    outer loop
      vertex 0 131.96000000000004 0
      vertex 72.86666666666667 131.96000000000004 0
      vertex 0 131.96000000000004 40
    endloop
  endfacet
  facet normal 0 1 0
    outer loop
      vertex 0 133.96000000000004 0
      vertex 72.86666666666667 133.96000000000004 40
      vertex 72.86666666666667 133.96000000000004 0
    endloop
  endfacet
  facet normal 0 0 -1
    outer loop
      vertex 74.86666666666667 131.96000000000004 0
      vertex 74.86666666666667 132.96000000000004 0
      vertex 109.80000000000001 132.96000000000004 0
    endloop
  endfacet
  facet normal 0 0 -1
    outer loop
      vertex 74.86666666666667 132.96000000000004 0
      vertex 74.86666666666667 133.96000000000004 0
      vertex 109.80000000000001 133.96000000000004 0
    endloop
  endfacet
  facet normal 0 0 -1
    outer loop
      vertex 74.86666666666667 131.96000000000004 0
      vertex 109.80000000000001 132.96000000000004 0
      vertex 109.80000000000001 131.96000000000004 0
    endloop
  endfacet
  facet normal 0 0 -1
    outer loop
      vertex 74.86666666666667 132.96000000000004 0
      vertex 109.80000000000001 133.96000000000004 0
      vertex 109.80000000000001 132.96000000000004 0
    endloop
  endfacet
  facet normal 0 -1 0
    outer loop
      vertex 74.86666666666667 131.96000000000004 0
      vertex 109.80000000000001 131.96000000000004 0
      vertex 74.86666666666667 131.96000000000004 40
    endloop
  endfacet
  facet normal 0 1 0
    outer loop
      vertex 74.86666666666667 133.96000000000004 0
      vertex 109.80000000000001 133.96000000000004 40
      vertex 109.80000000000001 133.96000000000004 0
    endloop
  endfacet
  facet normal -1 0 0
    outer loop
      vertex 0 131.96000000000004 0
      vertex 0 131.96000000000004 40
      vertex 0 133.96000000000004 40
    endloop
  endfacet
  facet normal 0 1 0
    outer loop
      vertex 0 133.96000000000004 0
      vertex 0 133.96000000000004 40
      vertex 72.86666666666667 133.96000000000004 40
    endloop
  endfacet
  facet normal 0 -1 0
    outer loop
      vertex 72.86666666666667 131.96000000000004 0
      vertex 72.86666666666667 131.96000000000004 40
      vertex 0 131.96000000000004 40
    endloop
  endfacet
  facet normal 0 0 1
    outer loop
      vertex 0 131.96000000000004 40
      vertex 72.86666666666667 132.96000000000004 40
      vertex 0 133.96000000000004 40
    endloop
  endfacet
  facet normal 0 0 1
    outer loop
      vertex 0 131.96000000000004 40
      vertex 72.86666666666667 131.96000000000004 40
      vertex 72.86666666666667 132.96000000000004 40
    endloop
  endfacet
  facet normal 0 0 1
    outer loop
      vertex 0 133.96000000000004 40
      vertex 72.86666666666667 132.96000000000004 40
      vertex 72.86666666666667 133.96000000000004 40
    endloop
  endfacet
  facet normal 0 1 0
    outer loop
      vertex 74.86666666666667 133.96000000000004 0
      vertex 74.86666666666667 133.96000000000004 40
      vertex 109.80000000000001 133.96000000000004 40
    endloop
  endfacet
  facet normal 0 -1 0
    outer loop
      vertex 109.80000000000001 131.96000000000004 0
      vertex 109.80000000000001 131.96000000000004 40
      vertex 74.86666666666667 131.96000000000004 40
    endloop
  endfacet
  facet normal 0 0 1
    outer loop
      vertex 74.86666666666667 131.96000000000004 40
      vertex 109.80000000000001 132.96000000000004 40
      vertex 74.86666666666667 132.96000000000004 40
    endloop
  endfacet
  facet normal 0 0 1
    outer loop
      vertex 74.86666666666667 132.96000000000004 40
      vertex 109.80000000000001 132.96000000000004 40
      vertex 74.86666666666667 133.96000000000004 40
    endloop
  endfacet
  facet normal 0 0 1
    outer loop
      vertex 74.86666666666667 131.96000000000004 40
      vertex 109.80000000000001 131.96000000000004 40
      vertex 109.80000000000001 132.96000000000004 40
    endloop
  endfacet
  facet normal 0 0 1
    outer loop
      vertex 109.80000000000001 132.96000000000004 40
      vertex 109.80000000000001 133.96000000000004 40
      vertex 74.86666666666667 133.96000000000004 40
    endloop
  endfacet
  facet normal 0 0 -1
    outer loop
      vertex 111.80000000000001 131.96000000000004 0
      vertex 111.80000000000001 132.96000000000004 0
      vertex 146.73333333333335 131.96000000000004 0
    endloop
  endfacet
  facet normal 0 0 -1
    outer loop
      vertex 111.80000000000001 132.96000000000004 0
      vertex 111.80000000000001 133.96000000000004 0
      vertex 146.73333333333335 133.96000000000004 0
    endloop
  endfacet
  facet normal 0 0 -1
    outer loop
      vertex 111.80000000000001 132.96000000000004 0
      vertex 146.73333333333335 132.96000000000004 0
      vertex 146.73333333333335 131.96000000000004 0
    endloop
  endfacet
  facet normal 0 0 -1
    outer loop
      vertex 111.80000000000001 132.96000000000004 0
      vertex 146.73333333333335 133.96000000000004 0
      vertex 146.73333333333335 132.96000000000004 0
    endloop
  endfacet
  facet normal 0 -1 0
    outer loop
      vertex 111.80000000000001 131.96000000000004 0
      vertex 146.73333333333335 131.96000000000004 0
      vertex 111.80000000000001 131.96000000000004 40
    endloop
  endfacet
  facet normal 0 1 0
    outer loop
      vertex 111.80000000000001 133.96000000000004 0
      vertex 146.73333333333335 133.96000000000004 40
      vertex 146.73333333333335 133.96000000000004 0
    endloop
  endfacet
  facet normal 0 0 -1
    outer loop
      vertex 148.73333333333335 131.96000000000004 0
      vertex 148.73333333333335 132.96000000000004 0
      vertex 221.60000000000002 131.96000000000004 0
    endloop
  endfacet
  facet normal 0 0 -1
    outer loop
      vertex 148.73333333333335 132.96000000000004 0
      vertex 148.73333333333335 133.96000000000004 0
      vertex 221.60000000000002 133.96000000000004 0
    endloop
  endfacet
  facet normal 0 0 -1
    outer loop
      vertex 148.73333333333335 132.96000000000004 0
      vertex 221.60000000000002 133.96000000000004 0
      vertex 221.60000000000002 131.96000000000004 0
    endloop
  endfacet
  facet normal 0 -1 0
    outer loop
      vertex 148.73333333333335 131.96000000000004 0
      vertex 221.60000000000002 131.96000000000004 0
      vertex 148.73333333333335 131.96000000000004 40
    endloop
  endfacet
  facet normal 0 1 0
    outer loop
      vertex 148.73333333333335 133.96000000000004 0
      vertex 221.60000000000002 133.96000000000004 40
      vertex 221.60000000000002 133.96000000000004 0
    endloop
  endfacet
  facet normal 1 0 0
    outer loop
      vertex 221.60000000000002 131.96000000000004 0
      vertex 221.60000000000002 133.96000000000004 0
      vertex 221.60000000000002 131.96000000000004 40
    endloop
  endfacet
  facet normal 0 1 0
    outer loop
      vertex 111.80000000000001 133.96000000000004 0
      vertex 111.80000000000001 133.96000000000004 40
      vertex 146.73333333333335 133.96000000000004 40
    endloop
  endfacet
  facet normal 0 -1 0
    outer loop
      vertex 146.73333333333335 131.96000000000004 0
      vertex 146.73333333333335 131.96000000000004 40
      vertex 111.80000000000001 131.96000000000004 40
    endloop
  endfacet
  facet normal 0 0 1
    outer loop
      vertex 111.80000000000001 131.96000000000004 40
      vertex 146.73333333333335 131.96000000000004 40
      vertex 111.80000000000001 132.96000000000004 40
    endloop
  endfacet
  facet normal 0 0 1
    outer loop
      vertex 111.80000000000001 132.96000000000004 40
      vertex 146.73333333333335 132.96000000000004 40
      vertex 111.80000000000001 133.96000000000004 40
    endloop
  endfacet
  facet normal 0 0 1
    outer loop
      vertex 111.80000000000001 132.96000000000004 40
      vertex 146.73333333333335 131.96000000000004 40
      vertex 146.73333333333335 132.96000000000004 40
    endloop
  endfacet
  facet normal 0 0 1
    outer loop
      vertex 146.73333333333335 132.96000000000004 40
      vertex 146.73333333333335 133.96000000000004 40
      vertex 111.80000000000001 133.96000000000004 40
    endloop
  endfacet
  facet normal 0 1 0
    outer loop
      vertex 148.73333333333335 133.96000000000004 0
      vertex 148.73333333333335 133.96000000000004 40
      vertex 221.60000000000002 133.96000000000004 40
    endloop
  endfacet
  facet normal 0 -1 0
    outer loop
      vertex 221.60000000000002 131.96000000000004 0
      vertex 221.60000000000002 131.96000000000004 40
      vertex 148.73333333333335 131.96000000000004 40
    endloop
  endfacet
  facet normal 1 0 0
    outer loop
      vertex 221.60000000000002 133.96000000000004 0
      vertex 221.60000000000002 133.96000000000004 40
      vertex 221.60000000000002 131.96000000000004 40
    endloop
  endfacet
  facet normal 0 0 1
    outer loop
      vertex 148.73333333333335 131.96000000000004 40
      vertex 221.60000000000002 131.96000000000004 40
      vertex 148.73333333333335 132.96000000000004 40
    endloop
  endfacet
  facet normal 0 0 1
    outer loop
      vertex 148.73333333333335 132.96000000000004 40
      vertex 221.60000000000002 133.96000000000004 40
      vertex 148.73333333333335 133.96000000000004 40
    endloop
  endfacet
  facet normal 0 0 1
    outer loop
      vertex 148.73333333333335 132.96000000000004 40
      vertex 221.60000000000002 131.96000000000004 40
      vertex 221.60000000000002 133.96000000000004 40
    endloop
  endfacet
  facet normal 0 0 -1
    outer loop
      vertex 0 176.28000000000003 0
      vertex 0 178.28000000000003 0
      vertex 72.86666666666667 177.28000000000003 0
    endloop
  endfacet
  facet normal 0 0 -1
    outer loop
      vertex 0 176.28000000000003 0
      vertex 72.86666666666667 177.28000000000003 0
      vertex 72.86666666666667 176.28000000000003 0
    endloop
  endfacet
  facet normal 0 0 -1
    outer loop
      vertex 0 178.28000000000003 0
      vertex 72.86666666666667 178.28000000000003 0
      vertex 72.86666666666667 177.28000000000003 0
    endloop
  endfacet
  facet normal -1 0 0
    outer loop
      vertex 0 176.28000000000003 0
      vertex 0 178.28000000000003 40
      vertex 0 178.28000000000003 0
    endloop
  endfacet
  facet normal 0 -1 0
    outer loop
      vertex 0 176.28000000000003 0
      vertex 72.86666666666667 176.28000000000003 0
      vertex 0 176.28000000000003 40
    endloop
  endfacet
  facet normal 0 1 0
    outer loop
      vertex 0 178.28000000000003 0
      vertex 0 178.28000000000003 40
      vertex 72.86666666666667 178.28000000000003 0
    endloop
  endfacet
  facet normal 0 0 -1
    outer loop
      vertex 74.86666666666667 178.28000000000003 0
      vertex 72.86666666666667 177.28000000000003 0
      vertex 72.86666666666667 178.28000000000003 0
    endloop
  endfacet
  facet normal 0 0 -1
    outer loop
      vertex 74.86666666666667 176.28000000000003 0
      vertex 74.86666666666667 177.28000000000003 0
      vertex 109.80000000000001 177.28000000000003 0
    endloop
  endfacet
  facet normal 0 0 -1
    outer loop
      vertex 74.86666666666667 178.28000000000003 0
      vertex 109.80000000000001 178.28000000000003 0
      vertex 72.86666666666667 177.28000000000003 0
    endloop
  endfacet
  facet normal 0 0 -1
    outer loop
      vertex 74.86666666666667 176.28000000000003 0
      vertex 109.80000000000001 177.28000000000003 0
      vertex 109.80000000000001 176.28000000000003 0
    endloop
  endfacet
  facet normal 0 0 -1
    outer loop
      vertex 109.80000000000001 178.28000000000003 0
      vertex 111.80000000000001 178.28000000000003 0
      vertex 72.86666666666667 177.28000000000003 0
    endloop
  endfacet
  facet normal 0 -1 0
    outer loop
      vertex 74.86666666666667 176.28000000000003 0
      vertex 109.80000000000001 176.28000000000003 0
      vertex 74.86666666666667 176.28000000000003 40
    endloop
  endfacet
  facet normal 0 1 0
    outer loop
      vertex 74.86666666666667 178.28000000000003 40
      vertex 109.80000000000001 178.28000000000003 0
      vertex 74.86666666666667 178.28000000000003 0
    endloop
  endfacet
  facet normal -1 0 0
    outer loop
      vertex 0 176.28000000000003 0
      vertex 0 176.28000000000003 40
      vertex 0 178.28000000000003 40
    endloop
  endfacet
  facet normal 0 -1 0
    outer loop
      vertex 72.86666666666667 176.28000000000003 0
      vertex 72.86666666666667 176.28000000000003 40
      vertex 0 176.28000000000003 40
    endloop
  endfacet
  facet normal 0 1 0
    outer loop
      vertex 0 178.28000000000003 40
      vertex 72.86666666666667 178.28000000000003 40
      vertex 72.86666666666667 178.28000000000003 0
    endloop
  endfacet
  facet normal 0 0 1
    outer loop
      vertex 0 176.28000000000003 40
      vertex 72.86666666666667 177.28000000000003 40
      vertex 0 178.28000000000003 40
    endloop
  endfacet
  facet normal 0 0 1
    outer loop
      vertex 0 176.28000000000003 40
      vertex 72.86666666666667 176.28000000000003 40
      vertex 72.86666666666667 177.28000000000003 40
    endloop
  endfacet
  facet normal 0 0 1
    outer loop
      vertex 0 178.28000000000003 40
      vertex 72.86666666666667 177.28000000000003 40
      vertex 74.86666666666667 177.28000000000003 40
    endloop
  endfacet
  facet normal 0 -1 0
    outer loop
      vertex 109.80000000000001 176.28000000000003 0
      vertex 109.80000000000001 176.28000000000003 40
      vertex 74.86666666666667 176.28000000000003 40
    endloop
  endfacet
  facet normal 0 1 0
    outer loop
      vertex 74.86666666666667 178.28000000000003 40
      vertex 109.80000000000001 178.28000000000003 40
      vertex 109.80000000000001 178.28000000000003 0
    endloop
  endfacet
  facet normal 0 0 1
    outer loop
      vertex 0 178.28000000000003 40
      vertex 74.86666666666667 177.28000000000003 40
      vertex 109.80000000000001 177.28000000000003 40
    endloop
  endfacet
  facet normal 0 0 1
    outer loop
      vertex 0 178.28000000000003 40
      vertex 109.80000000000001 177.28000000000003 40
      vertex 111.80000000000001 177.28000000000003 40
    endloop
  endfacet
  facet normal 0 0 1
    outer loop
      vertex 0 178.28000000000003 40
      vertex 148.73333333333335 177.28000000000003 40
      vertex 72.86666666666667 178.28000000000003 40
    endloop
  endfacet
  facet normal 0 0 1
    outer loop
      vertex 74.86666666666667 176.28000000000003 40
      vertex 109.80000000000001 176.28000000000003 40
      vertex 74.86666666666667 177.28000000000003 40
    endloop
  endfacet
  facet normal 0 0 1
    outer loop
      vertex 0 178.28000000000003 40
      vertex 111.80000000000001 177.28000000000003 40
      vertex 146.73333333333335 177.28000000000003 40
    endloop
  endfacet
  facet normal 0 0 1
    outer loop
      vertex 74.86666666666667 177.28000000000003 40
      vertex 109.80000000000001 176.28000000000003 40
      vertex 109.80000000000001 177.28000000000003 40
    endloop
  endfacet
  facet normal 0 0 1
    outer loop
      vertex 0 178.28000000000003 40
      vertex 146.73333333333335 177.28000000000003 40
      vertex 148.73333333333335 177.28000000000003 40
    endloop
  endfacet
  facet normal 0 0 1
    outer loop
      vertex 148.73333333333335 177.28000000000003 40
      vertex 74.86666666666667 178.28000000000003 40
      vertex 72.86666666666667 178.28000000000003 40
    endloop
  endfacet
  facet normal 0 0 -1
    outer loop
      vertex 111.80000000000001 176.28000000000003 0
      vertex 111.80000000000001 177.28000000000003 0
      vertex 146.73333333333335 177.28000000000003 0
    endloop
  endfacet
  facet normal 0 0 -1
    outer loop
      vertex 72.86666666666667 177.28000000000003 0
      vertex 221.60000000000002 178.28000000000003 0
      vertex 74.86666666666667 177.28000000000003 0
    endloop
  endfacet
  facet normal 0 0 -1
    outer loop
      vertex 111.80000000000001 176.28000000000003 0
      vertex 146.73333333333335 177.28000000000003 0
      vertex 146.73333333333335 176.28000000000003 0
    endloop
  endfacet
  facet normal 0 0 -1
    outer loop
      vertex 74.86666666666667 177.28000000000003 0
      vertex 221.60000000000002 178.28000000000003 0
      vertex 109.80000000000001 177.28000000000003 0
    endloop
  endfacet
  facet normal 0 0 -1
    outer loop
      vertex 111.80000000000001 178.28000000000003 0
      vertex 221.60000000000002 178.28000000000003 0
      vertex 72.86666666666667 177.28000000000003 0
    endloop
  endfacet
  facet normal 0 0 -1
    outer loop
      vertex 109.80000000000001 177.28000000000003 0
      vertex 221.60000000000002 178.28000000000003 0
      vertex 111.80000000000001 177.28000000000003 0
    endloop
  endfacet
  facet normal 0 0 -1
    outer loop
      vertex 111.80000000000001 177.28000000000003 0
      vertex 221.60000000000002 178.28000000000003 0
      vertex 146.73333333333335 177.28000000000003 0
    endloop
  endfacet
  facet normal 0 -1 0
    outer loop
      vertex 111.80000000000001 176.28000000000003 0
      vertex 146.73333333333335 176.28000000000003 0
      vertex 111.80000000000001 176.28000000000003 40
    endloop
  endfacet
  facet normal 0 1 0
    outer loop
      vertex 221.60000000000002 178.28000000000003 0
      vertex 111.80000000000001 178.28000000000003 0
      vertex 111.80000000000001 178.28000000000003 40
    endloop
  endfacet
  facet normal 0 0 -1
    outer loop
      vertex 148.73333333333335 176.28000000000003 0
      vertex 148.73333333333335 177.28000000000003 0
      vertex 221.60000000000002 176.28000000000003 0
    endloop
  endfacet
  facet normal 0 0 -1
    outer loop
      vertex 146.73333333333335 177.28000000000003 0
      vertex 221.60000000000002 178.28000000000003 0
      vertex 148.73333333333335 177.28000000000003 0
    endloop
  endfacet
  facet normal 0 0 -1
    outer loop
      vertex 148.73333333333335 177.28000000000003 0
      vertex 221.60000000000002 178.28000000000003 0
      vertex 221.60000000000002 176.28000000000003 0
    endloop
  endfacet
  facet normal 0 -1 0
    outer loop
      vertex 148.73333333333335 176.28000000000003 0
      vertex 221.60000000000002 176.28000000000003 0
      vertex 148.73333333333335 176.28000000000003 40
    endloop
  endfacet
  facet normal 1 0 0
    outer loop
      vertex 221.60000000000002 176.28000000000003 0
      vertex 221.60000000000002 178.28000000000003 0
      vertex 221.60000000000002 176.28000000000003 40
    endloop
  endfacet
  facet normal 0 -1 0
    outer loop
      vertex 146.73333333333335 176.28000000000003 0
      vertex 146.73333333333335 176.28000000000003 40
      vertex 111.80000000000001 176.28000000000003 40
    endloop
  endfacet
  facet normal 0 0 1
    outer loop
      vertex 109.80000000000001 178.28000000000003 40
      vertex 74.86666666666667 178.28000000000003 40
      vertex 148.73333333333335 177.28000000000003 40
    endloop
  endfacet
  facet normal 0 0 1
    outer loop
      vertex 111.80000000000001 176.28000000000003 40
      vertex 146.73333333333335 176.28000000000003 40
      vertex 111.80000000000001 177.28000000000003 40
    endloop
  endfacet
  facet normal 0 0 1
    outer loop
      vertex 148.73333333333335 177.28000000000003 40
      vertex 111.80000000000001 178.28000000000003 40
      vertex 109.80000000000001 178.28000000000003 40
    endloop
  endfacet
  facet normal 0 0 1
    outer loop
      vertex 111.80000000000001 177.28000000000003 40
      vertex 146.73333333333335 176.28000000000003 40
      vertex 146.73333333333335 177.28000000000003 40
    endloop
  endfacet
  facet normal 0 0 1
    outer loop
      vertex 221.60000000000002 178.28000000000003 40
      vertex 111.80000000000001 178.28000000000003 40
      vertex 148.73333333333335 177.28000000000003 40
    endloop
  endfacet
  facet normal 0 1 0
    outer loop
      vertex 221.60000000000002 178.28000000000003 0
      vertex 111.80000000000001 178.28000000000003 40
      vertex 221.60000000000002 178.28000000000003 40
    endloop
  endfacet
  facet normal 0 -1 0
    outer loop
      vertex 221.60000000000002 176.28000000000003 0
      vertex 221.60000000000002 176.28000000000003 40
      vertex 148.73333333333335 176.28000000000003 40
    endloop
  endfacet
  facet normal 1 0 0
    outer loop
      vertex 221.60000000000002 178.28000000000003 0
      vertex 221.60000000000002 178.28000000000003 40
      vertex 221.60000000000002 176.28000000000003 40
    endloop
  endfacet
  facet normal 0 0 1
    outer loop
      vertex 148.73333333333335 176.28000000000003 40
      vertex 221.60000000000002 176.28000000000003 40
      vertex 148.73333333333335 177.28000000000003 40
    endloop
  endfacet
  facet normal 0 0 1
    outer loop
      vertex 148.73333333333335 177.28000000000003 40
      vertex 221.60000000000002 176.28000000000003 40
      vertex 221.60000000000002 178.28000000000003 40
    endloop
  endfacet
  facet normal 0 0 -1
    outer loop
      vertex 72.86666666666667 0 0
      vertex 74.86666666666667 43.32000000000001 0
      vertex 74.86666666666667 0 0
    endloop
  endfacet
  facet normal 0 0 -1
    outer loop
      vertex 72.86666666666667 0 0
      vertex 72.86666666666667 43.32000000000001 0
      vertex 74.86666666666667 44.32000000000001 0
    endloop
  endfacet
  facet normal 0 0 -1
    outer loop
      vertex 72.86666666666667 0 0
      vertex 74.86666666666667 44.32000000000001 0
      vertex 74.86666666666667 43.32000000000001 0
    endloop
  endfacet
  facet normal 0 0 -1
    outer loop
      vertex 72.86666666666667 43.32000000000001 0
      vertex 72.86666666666667 44.32000000000001 0
      vertex 74.86666666666667 44.32000000000001 0
    endloop
  endfacet
  facet normal 0 -1 0
    outer loop
      vertex 72.86666666666667 0 0
      vertex 74.86666666666667 0 0
      vertex 74.86666666666667 0 40
    endloop
  endfacet
  facet normal -1 0 0
    outer loop
      vertex 72.86666666666667 0 0
      vertex 72.86666666666667 0 40
      vertex 72.86666666666667 43.32000000000001 0
    endloop
  endfacet
  facet normal 1 0 0
    outer loop
      vertex 74.86666666666667 0 0
      vertex 74.86666666666667 43.32000000000001 0
      vertex 74.86666666666667 43.32000000000001 40
    endloop
  endfacet
  facet normal 0 -1 0
    outer loop
      vertex 72.86666666666667 0 0
      vertex 74.86666666666667 0 40
      vertex 72.86666666666667 0 40
    endloop
  endfacet
  facet normal 1 0 0
    outer loop
      vertex 74.86666666666667 0 0
      vertex 74.86666666666667 43.32000000000001 40
      vertex 74.86666666666667 0 40
    endloop
  endfacet
  facet normal -1 0 0
    outer loop
      vertex 72.86666666666667 43.32000000000001 0
      vertex 72.86666666666667 0 40
      vertex 72.86666666666667 43.32000000000001 40
    endloop
  endfacet
  facet normal 0 0 1
    outer loop
      vertex 72.86666666666667 0 40
      vertex 74.86666666666667 0 40
      vertex 72.86666666666667 43.32000000000001 40
    endloop
  endfacet
  facet normal 0 0 1
    outer loop
      vertex 74.86666666666667 0 40
      vertex 72.86666666666667 44.32000000000001 40
      vertex 72.86666666666667 43.32000000000001 40
    endloop
  endfacet
  facet normal 0 0 1
    outer loop
      vertex 74.86666666666667 0 40
      vertex 74.86666666666667 43.32000000000001 40
      vertex 72.86666666666667 44.32000000000001 40
    endloop
  endfacet
  facet normal 0 0 1
    outer loop
      vertex 72.86666666666667 44.32000000000001 40
      vertex 74.86666666666667 43.32000000000001 40
      vertex 74.86666666666667 44.32000000000001 40
    endloop
  endfacet
  facet normal 0 0 -1
    outer loop
      vertex 146.73333333333335 0 0
      vertex 148.73333333333335 43.32000000000001 0
      vertex 148.73333333333335 0 0
    endloop
  endfacet
  facet normal 0 0 -1
    outer loop
      vertex 146.73333333333335 0 0
      vertex 146.73333333333335 43.32000000000001 0
      vertex 148.73333333333335 44.32000000000001 0
    endloop
  endfacet
  facet normal 0 0 -1
    outer loop
      vertex 146.73333333333335 0 0
      vertex 148.73333333333335 44.32000000000001 0
      vertex 148.73333333333335 43.32000000000001 0
    endloop
  endfacet
  facet normal 0 0 -1
    outer loop
      vertex 146.73333333333335 43.32000000000001 0
      vertex 146.73333333333335 44.32000000000001 0
      vertex 148.73333333333335 44.32000000000001 0
    endloop
  endfacet
  facet normal 0 -1 0
    outer loop
      vertex 146.73333333333335 0 0
      vertex 148.73333333333335 0 0
      vertex 148.73333333333335 0 40
    endloop
  endfacet
  facet normal -1 0 0
    outer loop
      vertex 146.73333333333335 0 0
      vertex 146.73333333333335 0 40
      vertex 146.73333333333335 43.32000000000001 0
    endloop
  endfacet
  facet normal 1 0 0
    outer loop
      vertex 148.73333333333335 0 0
      vertex 148.73333333333335 43.32000000000001 0
      vertex 148.73333333333335 43.32000000000001 40
    endloop
  endfacet
  facet normal 0 -1 0
    outer loop
      vertex 146.73333333333335 0 0
      vertex 148.73333333333335 0 40
      vertex 146.73333333333335 0 40
    endloop
  endfacet
  facet normal 1 0 0
    outer loop
      vertex 148.73333333333335 0 0
      vertex 148.73333333333335 43.32000000000001 40
      vertex 148.73333333333335 0 40
    endloop
  endfacet
  facet normal -1 0 0
    outer loop
      vertex 146.73333333333335 43.32000000000001 0
      vertex 146.73333333333335 0 40
      vertex 146.73333333333335 43.32000000000001 40
    endloop
  endfacet
  facet normal 0 0 1
    outer loop
      vertex 146.73333333333335 0 40
      vertex 148.73333333333335 0 40
      vertex 146.73333333333335 43.32000000000001 40
    endloop
  endfacet
  facet normal 0 0 1
    outer loop
      vertex 148.73333333333335 0 40
      vertex 146.73333333333335 44.32000000000001 40
      vertex 146.73333333333335 43.32000000000001 40
    endloop
  endfacet
  facet normal 0 0 1
    outer loop
      vertex 148.73333333333335 0 40
      vertex 148.73333333333335 43.32000000000001 40
      vertex 146.73333333333335 44.32000000000001 40
    endloop
  endfacet
  facet normal 0 0 1
    outer loop
      vertex 146.73333333333335 44.32000000000001 40
      vertex 148.73333333333335 43.32000000000001 40
      vertex 148.73333333333335 44.32000000000001 40
    endloop
  endfacet
  facet normal 0 0 -1
    outer loop
      vertex 109.80000000000001 0 0
      vertex 109.80000000000001 43.32000000000001 0
      vertex 111.80000000000001 44.32000000000001 0
    endloop
  endfacet
  facet normal 0 0 -1
    outer loop
      vertex 109.80000000000001 43.32000000000001 0
      vertex 109.80000000000001 44.32000000000001 0
      vertex 111.80000000000001 44.32000000000001 0
    endloop
  endfacet
  facet normal -1 0 0
    outer loop
      vertex 109.80000000000001 0 0
      vertex 109.80000000000001 0 40
      vertex 109.80000000000001 43.32000000000001 0
    endloop
  endfacet
  facet normal 0 -1 0
    outer loop
      vertex 109.80000000000001 0 0
      vertex 111.80000000000001 0 40
      vertex 109.80000000000001 0 40
    endloop
  endfacet
  facet normal -1 0 0
    outer loop
      vertex 109.80000000000001 43.32000000000001 0
      vertex 109.80000000000001 0 40
      vertex 109.80000000000001 43.32000000000001 40
    endloop
  endfacet
  facet normal 0 0 1
    outer loop
      vertex 109.80000000000001 0 40
      vertex 111.80000000000001 0 40
      vertex 109.80000000000001 43.32000000000001 40
    endloop
  endfacet
  facet normal 0 0 1
    outer loop
      vertex 109.80000000000001 43.32000000000001 40
      vertex 111.80000000000001 0 40
      vertex 109.80000000000001 44.32000000000001 40
    endloop
  endfacet
  facet normal 0 0 -1
    outer loop
      vertex 109.80000000000001 0 0
      vertex 111.80000000000001 43.32000000000001 0
      vertex 111.80000000000001 0 0
    endloop
  endfacet
  facet normal 0 0 -1
    outer loop
      vertex 109.80000000000001 0 0
      vertex 111.80000000000001 44.32000000000001 0
      vertex 111.80000000000001 43.32000000000001 0
    endloop
  endfacet
  facet normal 0 -1 0
    outer loop
      vertex 109.80000000000001 0 0
      vertex 111.80000000000001 0 0
      vertex 111.80000000000001 0 40
    endloop
  endfacet
  facet normal 1 0 0
    outer loop
      vertex 111.80000000000001 0 0
      vertex 111.80000000000001 43.32000000000001 0
      vertex 111.80000000000001 43.32000000000001 40
    endloop
  endfacet
  facet normal 1 0 0
    outer loop
      vertex 111.80000000000001 0 0
      vertex 111.80000000000001 43.32000000000001 40
      vertex 111.80000000000001 0 40
    endloop
  endfacet
  facet normal 0 0 1
    outer loop
      vertex 109.80000000000001 44.32000000000001 40
      vertex 111.80000000000001 0 40
      vertex 111.80000000000001 43.32000000000001 40
    endloop
  endfacet
  facet normal 0 0 1
    outer loop
      vertex 109.80000000000001 44.32000000000001 40
      vertex 111.80000000000001 43.32000000000001 40
      vertex 111.80000000000001 44.32000000000001 40
    endloop
  endfacet
  facet normal 0 0 -1
    outer loop
      vertex 72.86666666666667 44.32000000000001 0
      vertex 74.86666666666667 45.32000000000001 0
      vertex 74.86666666666667 44.32000000000001 0
    endloop
  endfacet
  facet normal 0 0 -1
    outer loop
      vertex 72.86666666666667 44.32000000000001 0
      vertex 72.86666666666667 45.32000000000001 0
      vertex 74.86666666666667 88.64000000000001 0
    endloop
  endfacet
  facet normal 0 0 -1
    outer loop
      vertex 72.86666666666667 44.32000000000001 0
      vertex 74.86666666666667 87.64000000000001 0
      vertex 74.86666666666667 45.32000000000001 0
    endloop
  endfacet
  facet normal 0 0 -1
    outer loop
      vertex 72.86666666666667 45.32000000000001 0
      vertex 72.86666666666667 87.64000000000001 0
      vertex 74.86666666666667 88.64000000000001 0
    endloop
  endfacet
  facet normal 0 0 -1
    outer loop
      vertex 72.86666666666667 44.32000000000001 0
      vertex 74.86666666666667 88.64000000000001 0
      vertex 74.86666666666667 87.64000000000001 0
    endloop
  endfacet
  facet normal 0 0 -1
    outer loop
      vertex 72.86666666666667 87.64000000000001 0
      vertex 72.86666666666667 88.64000000000001 0
      vertex 74.86666666666667 88.64000000000001 0
    endloop
  endfacet
  facet normal -1 0 0
    outer loop
      vertex 72.86666666666667 45.32000000000001 0
      vertex 72.86666666666667 45.32000000000001 40
      vertex 72.86666666666667 87.64000000000001 0
    endloop
  endfacet
  facet normal 1 0 0
    outer loop
      vertex 74.86666666666667 45.32000000000001 0
      vertex 74.86666666666667 87.64000000000001 0
      vertex 74.86666666666667 87.64000000000001 40
    endloop
  endfacet
  facet normal 0 0 1
    outer loop
      vertex 72.86666666666667 44.32000000000001 40
      vertex 74.86666666666667 44.32000000000001 40
      vertex 72.86666666666667 45.32000000000001 40
    endloop
  endfacet
  facet normal 1 0 0
    outer loop
      vertex 74.86666666666667 45.32000000000001 0
      vertex 74.86666666666667 87.64000000000001 40
      vertex 74.86666666666667 45.32000000000001 40
    endloop
  endfacet
  facet normal -1 0 0
    outer loop
      vertex 72.86666666666667 87.64000000000001 0
      vertex 72.86666666666667 45.32000000000001 40
      vertex 72.86666666666667 87.64000000000001 40
    endloop
  endfacet
  facet normal 0 0 1
    outer loop
      vertex 74.86666666666667 44.32000000000001 40
      vertex 72.86666666666667 87.64000000000001 40
      vertex 72.86666666666667 45.32000000000001 40
    endloop
  endfacet
  facet normal 0 0 1
    outer loop
      vertex 74.86666666666667 44.32000000000001 40
      vertex 74.86666666666667 45.32000000000001 40
      vertex 72.86666666666667 88.64000000000001 40
    endloop
  endfacet
  facet normal 0 0 1
    outer loop
      vertex 74.86666666666667 44.32000000000001 40
      vertex 72.86666666666667 88.64000000000001 40
      vertex 72.86666666666667 87.64000000000001 40
    endloop
  endfacet
  facet normal 0 0 1
    outer loop
      vertex 74.86666666666667 45.32000000000001 40
      vertex 74.86666666666667 87.64000000000001 40
      vertex 72.86666666666667 88.64000000000001 40
    endloop
  endfacet
  facet normal 0 0 1
    outer loop
      vertex 72.86666666666667 88.64000000000001 40
      vertex 74.86666666666667 87.64000000000001 40
      vertex 74.86666666666667 88.64000000000001 40
    endloop
  endfacet
  facet normal 0 0 -1
    outer loop
      vertex 146.73333333333335 44.32000000000001 0
      vertex 148.73333333333335 45.32000000000001 0
      vertex 148.73333333333335 44.32000000000001 0
    endloop
  endfacet
  facet normal 0 0 -1
    outer loop
      vertex 146.73333333333335 44.32000000000001 0
      vertex 146.73333333333335 45.32000000000001 0
      vertex 148.73333333333335 88.64000000000001 0
    endloop
  endfacet
  facet normal 0 0 -1
    outer loop
      vertex 146.73333333333335 44.32000000000001 0
      vertex 148.73333333333335 87.64000000000001 0
      vertex 148.73333333333335 45.32000000000001 0
    endloop
  endfacet
  facet normal 0 0 -1
    outer loop
      vertex 146.73333333333335 45.32000000000001 0
      vertex 146.73333333333335 87.64000000000001 0
      vertex 148.73333333333335 88.64000000000001 0
    endloop
  endfacet
  facet normal 0 0 -1
    outer loop
      vertex 146.73333333333335 44.32000000000001 0
      vertex 148.73333333333335 88.64000000000001 0
      vertex 148.73333333333335 87.64000000000001 0
    endloop
  endfacet
  facet normal 0 0 -1
    outer loop
      vertex 146.73333333333335 87.64000000000001 0
      vertex 146.73333333333335 88.64000000000001 0
      vertex 148.73333333333335 88.64000000000001 0
    endloop
  endfacet
  facet normal -1 0 0
    outer loop
      vertex 146.73333333333335 45.32000000000001 0
      vertex 146.73333333333335 45.32000000000001 40
      vertex 146.73333333333335 87.64000000000001 0
    endloop
  endfacet
  facet normal 1 0 0
    outer loop
      vertex 148.73333333333335 45.32000000000001 0
      vertex 148.73333333333335 87.64000000000001 0
      vertex 148.73333333333335 87.64000000000001 40
    endloop
  endfacet
  facet normal 0 0 1
    outer loop
      vertex 146.73333333333335 44.32000000000001 40
      vertex 148.73333333333335 44.32000000000001 40
      vertex 146.73333333333335 45.32000000000001 40
    endloop
  endfacet
  facet normal 1 0 0
    outer loop
      vertex 148.73333333333335 45.32000000000001 0
      vertex 148.73333333333335 87.64000000000001 40
      vertex 148.73333333333335 45.32000000000001 40
    endloop
  endfacet
  facet normal -1 0 0
    outer loop
      vertex 146.73333333333335 87.64000000000001 0
      vertex 146.73333333333335 45.32000000000001 40
      vertex 146.73333333333335 87.64000000000001 40
    endloop
  endfacet
  facet normal 0 0 1
    outer loop
      vertex 148.73333333333335 44.32000000000001 40
      vertex 146.73333333333335 87.64000000000001 40
      vertex 146.73333333333335 45.32000000000001 40
    endloop
  endfacet
  facet normal 0 0 1
    outer loop
      vertex 148.73333333333335 44.32000000000001 40
      vertex 148.73333333333335 45.32000000000001 40
      vertex 146.73333333333335 88.64000000000001 40
    endloop
  endfacet
  facet normal 0 0 1
    outer loop
      vertex 148.73333333333335 44.32000000000001 40
      vertex 146.73333333333335 88.64000000000001 40
      vertex 146.73333333333335 87.64000000000001 40
    endloop
  endfacet
  facet normal 0 0 1
    outer loop
      vertex 148.73333333333335 45.32000000000001 40
      vertex 148.73333333333335 87.64000000000001 40
      vertex 146.73333333333335 88.64000000000001 40
    endloop
  endfacet
  facet normal 0 0 1
    outer loop
      vertex 146.73333333333335 88.64000000000001 40
      vertex 148.73333333333335 87.64000000000001 40
      vertex 148.73333333333335 88.64000000000001 40
    endloop
  endfacet
  facet normal 0 0 -1
    outer loop
      vertex 109.80000000000001 44.32000000000001 0
      vertex 109.80000000000001 45.32000000000001 0
      vertex 111.80000000000001 88.64000000000001 0
    endloop
  endfacet
  facet normal 0 0 -1
    outer loop
      vertex 109.80000000000001 45.32000000000001 0
      vertex 109.80000000000001 87.64000000000001 0
      vertex 111.80000000000001 88.64000000000001 0
    endloop
  endfacet
  facet normal 0 0 -1
    outer loop
      vertex 109.80000000000001 87.64000000000001 0
      vertex 109.80000000000001 88.64000000000001 0
      vertex 111.80000000000001 88.64000000000001 0
    endloop
  endfacet
  facet normal -1 0 0
    outer loop
      vertex 109.80000000000001 45.32000000000001 0
      vertex 109.80000000000001 45.32000000000001 40
      vertex 109.80000000000001 87.64000000000001 0
    endloop
  endfacet
  facet normal 0 0 1
    outer loop
      vertex 109.80000000000001 44.32000000000001 40
      vertex 111.80000000000001 44.32000000000001 40
      vertex 109.80000000000001 45.32000000000001 40
    endloop
  endfacet
  facet normal -1 0 0
    outer loop
      vertex 109.80000000000001 87.64000000000001 0
      vertex 109.80000000000001 45.32000000000001 40
      vertex 109.80000000000001 87.64000000000001 40
    endloop
  endfacet
  facet normal 0 0 1
    outer loop
      vertex 109.80000000000001 45.32000000000001 40
      vertex 111.80000000000001 44.32000000000001 40
      vertex 109.80000000000001 87.64000000000001 40
    endloop
  endfacet
  facet normal 0 0 1
    outer loop
      vertex 109.80000000000001 87.64000000000001 40
      vertex 111.80000000000001 44.32000000000001 40
      vertex 109.80000000000001 88.64000000000001 40
    endloop
  endfacet
  facet normal 0 0 -1
    outer loop
      vertex 109.80000000000001 44.32000000000001 0
      vertex 111.80000000000001 45.32000000000001 0
      vertex 111.80000000000001 44.32000000000001 0
    endloop
  endfacet
  facet normal 0 0 -1
    outer loop
      vertex 109.80000000000001 44.32000000000001 0
      vertex 111.80000000000001 87.64000000000001 0
      vertex 111.80000000000001 45.32000000000001 0
    endloop
  endfacet
  facet normal 0 0 -1
    outer loop
      vertex 109.80000000000001 44.32000000000001 0
      vertex 111.80000000000001 88.64000000000001 0
      vertex 111.80000000000001 87.64000000000001 0
    endloop
  endfacet
  facet normal 1 0 0
    outer loop
      vertex 111.80000000000001 45.32000000000001 0
      vertex 111.80000000000001 87.64000000000001 0
      vertex 111.80000000000001 87.64000000000001 40
    endloop
  endfacet
  facet normal 1 0 0
    outer loop
      vertex 111.80000000000001 45.32000000000001 0
      vertex 111.80000000000001 87.64000000000001 40
      vertex 111.80000000000001 45.32000000000001 40
    endloop
  endfacet
  facet normal 0 0 1
    outer loop
      vertex 109.80000000000001 88.64000000000001 40
      vertex 111.80000000000001 44.32000000000001 40
      vertex 111.80000000000001 45.32000000000001 40
    endloop
  endfacet
  facet normal 0 0 1
    outer loop
      vertex 109.80000000000001 88.64000000000001 40
      vertex 111.80000000000001 45.32000000000001 40
      vertex 111.80000000000001 87.64000000000001 40
    endloop
  endfacet
  facet normal 0 0 1
    outer loop
      vertex 109.80000000000001 88.64000000000001 40
      vertex 111.80000000000001 87.64000000000001 40
      vertex 111.80000000000001 88.64000000000001 40
    endloop
  endfacet
  facet normal 0 0 -1
    outer loop
      vertex 72.86666666666667 88.64000000000001 0
      vertex 74.86666666666667 89.64000000000001 0
      vertex 74.86666666666667 88.64000000000001 0
    endloop
  endfacet
  facet normal 0 0 -1
    outer loop
      vertex 72.86666666666667 88.64000000000001 0
      vertex 72.86666666666667 89.64000000000001 0
      vertex 74.86666666666667 132.96000000000004 0
    endloop
  endfacet
  facet normal 0 0 -1
    outer loop
      vertex 72.86666666666667 88.64000000000001 0
      vertex 74.86666666666667 131.96000000000004 0
      vertex 74.86666666666667 89.64000000000001 0
    endloop
  endfacet
  facet normal -1 0 0
    outer loop
      vertex 72.86666666666667 89.64000000000001 0
      vertex 72.86666666666667 89.64000000000001 40
      vertex 72.86666666666667 131.96000000000004 0
    endloop
  endfacet
  facet normal 1 0 0
    outer loop
      vertex 74.86666666666667 89.64000000000001 0
      vertex 74.86666666666667 131.96000000000004 40
      vertex 74.86666666666667 89.64000000000001 40
    endloop
  endfacet
  facet normal 0 0 1
    outer loop
      vertex 72.86666666666667 88.64000000000001 40
      vertex 74.86666666666667 88.64000000000001 40
      vertex 72.86666666666667 89.64000000000001 40
    endloop
  endfacet
  facet normal 0 0 1
    outer loop
      vertex 74.86666666666667 88.64000000000001 40
      vertex 72.86666666666667 131.96000000000004 40
      vertex 72.86666666666667 89.64000000000001 40
    endloop
  endfacet
  facet normal 0 0 1
    outer loop
      vertex 74.86666666666667 88.64000000000001 40
      vertex 74.86666666666667 89.64000000000001 40
      vertex 72.86666666666667 132.96000000000004 40
    endloop
  endfacet
  facet normal 0 0 -1
    outer loop
      vertex 72.86666666666667 89.64000000000001 0
      vertex 72.86666666666667 131.96000000000004 0
      vertex 74.86666666666667 132.96000000000004 0
    endloop
  endfacet
  facet normal 0 0 -1
    outer loop
      vertex 72.86666666666667 88.64000000000001 0
      vertex 74.86666666666667 132.96000000000004 0
      vertex 74.86666666666667 131.96000000000004 0
    endloop
  endfacet
  facet normal 0 0 -1
    outer loop
      vertex 72.86666666666667 131.96000000000004 0
      vertex 72.86666666666667 132.96000000000004 0
      vertex 74.86666666666667 132.96000000000004 0
    endloop
  endfacet
  facet normal 1 0 0
    outer loop
      vertex 74.86666666666667 89.64000000000001 0
      vertex 74.86666666666667 131.96000000000004 0
      vertex 74.86666666666667 131.96000000000004 40
    endloop
  endfacet
  facet normal -1 0 0
    outer loop
      vertex 72.86666666666667 131.96000000000004 0
      vertex 72.86666666666667 89.64000000000001 40
      vertex 72.86666666666667 131.96000000000004 40
    endloop
  endfacet
  facet normal 0 0 1
    outer loop
      vertex 74.86666666666667 88.64000000000001 40
      vertex 72.86666666666667 132.96000000000004 40
      vertex 72.86666666666667 131.96000000000004 40
    endloop
  endfacet
  facet normal 0 0 1
    outer loop
      vertex 74.86666666666667 89.64000000000001 40
      vertex 74.86666666666667 131.96000000000004 40
      vertex 72.86666666666667 132.96000000000004 40
    endloop
  endfacet
  facet normal 0 0 1
    outer loop
      vertex 72.86666666666667 132.96000000000004 40
      vertex 74.86666666666667 131.96000000000004 40
      vertex 74.86666666666667 132.96000000000004 40
    endloop
  endfacet
  facet normal 0 0 -1
    outer loop
      vertex 146.73333333333335 88.64000000000001 0
      vertex 148.73333333333335 89.64000000000001 0
      vertex 148.73333333333335 88.64000000000001 0
    endloop
  endfacet
  facet normal 0 0 -1
    outer loop
      vertex 146.73333333333335 88.64000000000001 0
      vertex 146.73333333333335 89.64000000000001 0
      vertex 148.73333333333335 132.96000000000004 0
    endloop
  endfacet
  facet normal 0 0 -1
    outer loop
      vertex 146.73333333333335 88.64000000000001 0
      vertex 148.73333333333335 131.96000000000004 0
      vertex 148.73333333333335 89.64000000000001 0
    endloop
  endfacet
  facet normal -1 0 0
    outer loop
      vertex 146.73333333333335 89.64000000000001 0
      vertex 146.73333333333335 89.64000000000001 40
      vertex 146.73333333333335 131.96000000000004 0
    endloop
  endfacet
  facet normal 1 0 0
    outer loop
      vertex 148.73333333333335 89.64000000000001 0
      vertex 148.73333333333335 131.96000000000004 40
      vertex 148.73333333333335 89.64000000000001 40
    endloop
  endfacet
  facet normal 0 0 1
    outer loop
      vertex 146.73333333333335 88.64000000000001 40
      vertex 148.73333333333335 88.64000000000001 40
      vertex 146.73333333333335 89.64000000000001 40
    endloop
  endfacet
  facet normal 0 0 1
    outer loop
      vertex 148.73333333333335 88.64000000000001 40
      vertex 146.73333333333335 131.96000000000004 40
      vertex 146.73333333333335 89.64000000000001 40
    endloop
  endfacet
  facet normal 0 0 1
    outer loop
      vertex 148.73333333333335 88.64000000000001 40
      vertex 148.73333333333335 89.64000000000001 40
      vertex 146.73333333333335 132.96000000000004 40
    endloop
  endfacet
  facet normal 0 0 -1
    outer loop
      vertex 146.73333333333335 89.64000000000001 0
      vertex 146.73333333333335 131.96000000000004 0
      vertex 148.73333333333335 132.96000000000004 0
    endloop
  endfacet
  facet normal 0 0 -1
    outer loop
      vertex 146.73333333333335 88.64000000000001 0
      vertex 148.73333333333335 132.96000000000004 0
      vertex 148.73333333333335 131.96000000000004 0
    endloop
  endfacet
  facet normal 0 0 -1
    outer loop
      vertex 146.73333333333335 131.96000000000004 0
      vertex 146.73333333333335 132.96000000000004 0
      vertex 148.73333333333335 132.96000000000004 0
    endloop
  endfacet
  facet normal 1 0 0
    outer loop
      vertex 148.73333333333335 89.64000000000001 0
      vertex 148.73333333333335 131.96000000000004 0
      vertex 148.73333333333335 131.96000000000004 40
    endloop
  endfacet
  facet normal -1 0 0
    outer loop
      vertex 146.73333333333335 131.96000000000004 0
      vertex 146.73333333333335 89.64000000000001 40
      vertex 146.73333333333335 131.96000000000004 40
    endloop
  endfacet
  facet normal 0 0 1
    outer loop
      vertex 148.73333333333335 88.64000000000001 40
      vertex 146.73333333333335 132.96000000000004 40
      vertex 146.73333333333335 131.96000000000004 40
    endloop
  endfacet
  facet normal 0 0 1
    outer loop
      vertex 148.73333333333335 89.64000000000001 40
      vertex 148.73333333333335 131.96000000000004 40
      vertex 146.73333333333335 132.96000000000004 40
    endloop
  endfacet
  facet normal 0 0 1
    outer loop
      vertex 146.73333333333335 132.96000000000004 40
      vertex 148.73333333333335 131.96000000000004 40
      vertex 148.73333333333335 132.96000000000004 40
    endloop
  endfacet
  facet normal 0 0 -1
    outer loop
      vertex 109.80000000000001 88.64000000000001 0
      vertex 109.80000000000001 89.64000000000001 0
      vertex 111.80000000000001 132.96000000000004 0
    endloop
  endfacet
  facet normal -1 0 0
    outer loop
      vertex 109.80000000000001 89.64000000000001 0
      vertex 109.80000000000001 89.64000000000001 40
      vertex 109.80000000000001 131.96000000000004 0
    endloop
  endfacet
  facet normal 0 0 1
    outer loop
      vertex 109.80000000000001 88.64000000000001 40
      vertex 111.80000000000001 88.64000000000001 40
      vertex 109.80000000000001 89.64000000000001 40
    endloop
  endfacet
  facet normal 0 0 1
    outer loop
      vertex 109.80000000000001 89.64000000000001 40
      vertex 111.80000000000001 88.64000000000001 40
      vertex 109.80000000000001 131.96000000000004 40
    endloop
  endfacet
  facet normal 0 0 -1
    outer loop
      vertex 109.80000000000001 89.64000000000001 0
      vertex 109.80000000000001 131.96000000000004 0
      vertex 111.80000000000001 132.96000000000004 0
    endloop
  endfacet
  facet normal 0 0 -1
    outer loop
      vertex 109.80000000000001 131.96000000000004 0
      vertex 109.80000000000001 132.96000000000004 0
      vertex 111.80000000000001 132.96000000000004 0
    endloop
  endfacet
  facet normal -1 0 0
    outer loop
      vertex 109.80000000000001 131.96000000000004 0
      vertex 109.80000000000001 89.64000000000001 40
      vertex 109.80000000000001 131.96000000000004 40
    endloop
  endfacet
  facet normal 0 0 1
    outer loop
      vertex 109.80000000000001 131.96000000000004 40
      vertex 111.80000000000001 88.64000000000001 40
      vertex 109.80000000000001 132.96000000000004 40
    endloop
  endfacet
  facet normal 0 0 -1
    outer loop
      vertex 109.80000000000001 88.64000000000001 0
      vertex 111.80000000000001 89.64000000000001 0
      vertex 111.80000000000001 88.64000000000001 0
    endloop
  endfacet
  facet normal 0 0 -1
    outer loop
      vertex 109.80000000000001 88.64000000000001 0
      vertex 111.80000000000001 131.96000000000004 0
      vertex 111.80000000000001 89.64000000000001 0
    endloop
  endfacet
  facet normal 1 0 0
    outer loop
      vertex 111.80000000000001 89.64000000000001 0
      vertex 111.80000000000001 131.96000000000004 40
      vertex 111.80000000000001 89.64000000000001 40
    endloop
  endfacet
  facet normal 0 0 1
    outer loop
      vertex 109.80000000000001 132.96000000000004 40
      vertex 111.80000000000001 88.64000000000001 40
      vertex 111.80000000000001 89.64000000000001 40
    endloop
  endfacet
  facet normal 0 0 -1
    outer loop
      vertex 109.80000000000001 88.64000000000001 0
      vertex 111.80000000000001 132.96000000000004 0
      vertex 111.80000000000001 131.96000000000004 0
    endloop
  endfacet
  facet normal 1 0 0
    outer loop
      vertex 111.80000000000001 89.64000000000001 0
      vertex 111.80000000000001 131.96000000000004 0
      vertex 111.80000000000001 131.96000000000004 40
    endloop
  endfacet
  facet normal 0 0 1
    outer loop
      vertex 109.80000000000001 132.96000000000004 40
      vertex 111.80000000000001 89.64000000000001 40
      vertex 111.80000000000001 131.96000000000004 40
    endloop
  endfacet
  facet normal 0 0 1
    outer loop
      vertex 109.80000000000001 132.96000000000004 40
      vertex 111.80000000000001 131.96000000000004 40
      vertex 111.80000000000001 132.96000000000004 40
    endloop
  endfacet
  facet normal 0 0 -1
    outer loop
      vertex 72.86666666666667 132.96000000000004 0
      vertex 74.86666666666667 133.96000000000004 0
      vertex 74.86666666666667 132.96000000000004 0
    endloop
  endfacet
  facet normal 0 0 -1
    outer loop
      vertex 72.86666666666667 132.96000000000004 0
      vertex 72.86666666666667 133.96000000000004 0
      vertex 74.86666666666667 177.28000000000003 0
    endloop
  endfacet
  facet normal 0 0 -1
    outer loop
      vertex 72.86666666666667 132.96000000000004 0
      vertex 74.86666666666667 176.28000000000003 0
      vertex 74.86666666666667 133.96000000000004 0
    endloop
  endfacet
  facet normal 0 0 -1
    outer loop
      vertex 72.86666666666667 133.96000000000004 0
      vertex 72.86666666666667 176.28000000000003 0
      vertex 74.86666666666667 177.28000000000003 0
    endloop
  endfacet
  facet normal 0 0 -1
    outer loop
      vertex 72.86666666666667 132.96000000000004 0
      vertex 74.86666666666667 177.28000000000003 0
      vertex 74.86666666666667 176.28000000000003 0
    endloop
  endfacet
  facet normal -1 0 0
    outer loop
      vertex 72.86666666666667 133.96000000000004 0
      vertex 72.86666666666667 133.96000000000004 40
      vertex 72.86666666666667 176.28000000000003 0
    endloop
  endfacet
  facet normal 1 0 0
    outer loop
      vertex 74.86666666666667 133.96000000000004 0
      vertex 74.86666666666667 176.28000000000003 0
      vertex 74.86666666666667 176.28000000000003 40
    endloop
  endfacet
  facet normal 0 0 -1
    outer loop
      vertex 72.86666666666667 176.28000000000003 0
      vertex 72.86666666666667 177.28000000000003 0
      vertex 74.86666666666667 177.28000000000003 0
    endloop
  endfacet
  facet normal 1 0 0
    outer loop
      vertex 74.86666666666667 133.96000000000004 0
      vertex 74.86666666666667 176.28000000000003 40
      vertex 74.86666666666667 133.96000000000004 40
    endloop
  endfacet
  facet normal -1 0 0
    outer loop
      vertex 72.86666666666667 176.28000000000003 0
      vertex 72.86666666666667 133.96000000000004 40
      vertex 72.86666666666667 176.28000000000003 40
    endloop
  endfacet
  facet normal 0 0 1
    outer loop
      vertex 72.86666666666667 132.96000000000004 40
      vertex 74.86666666666667 132.96000000000004 40
      vertex 72.86666666666667 133.96000000000004 40
    endloop
  endfacet
  facet normal 0 0 1
    outer loop
      vertex 74.86666666666667 132.96000000000004 40
      vertex 72.86666666666667 176.28000000000003 40
      vertex 72.86666666666667 133.96000000000004 40
    endloop
  endfacet
  facet normal 0 0 1
    outer loop
      vertex 74.86666666666667 132.96000000000004 40
      vertex 74.86666666666667 133.96000000000004 40
      vertex 72.86666666666667 177.28000000000003 40
    endloop
  endfacet
  facet normal 0 0 1
    outer loop
      vertex 74.86666666666667 132.96000000000004 40
      vertex 72.86666666666667 177.28000000000003 40
      vertex 72.86666666666667 176.28000000000003 40
    endloop
  endfacet
  facet normal 0 0 1
    outer loop
      vertex 74.86666666666667 133.96000000000004 40
      vertex 74.86666666666667 176.28000000000003 40
      vertex 72.86666666666667 177.28000000000003 40
    endloop
  endfacet
  facet normal 0 0 1
    outer loop
      vertex 72.86666666666667 177.28000000000003 40
      vertex 74.86666666666667 176.28000000000003 40
      vertex 74.86666666666667 177.28000000000003 40
    endloop
  endfacet
  facet normal 0 0 -1
    outer loop
      vertex 146.73333333333335 132.96000000000004 0
      vertex 148.73333333333335 133.96000000000004 0
      vertex 148.73333333333335 132.96000000000004 0
    endloop
  endfacet
  facet normal 0 0 -1
    outer loop
      vertex 146.73333333333335 132.96000000000004 0
      vertex 146.73333333333335 133.96000000000004 0
      vertex 148.73333333333335 177.28000000000003 0
    endloop
  endfacet
  facet normal 0 0 -1
    outer loop
      vertex 146.73333333333335 132.96000000000004 0
      vertex 148.73333333333335 176.28000000000003 0
      vertex 148.73333333333335 133.96000000000004 0
    endloop
  endfacet
  facet normal 0 0 -1
    outer loop
      vertex 146.73333333333335 133.96000000000004 0
      vertex 146.73333333333335 176.28000000000003 0
      vertex 148.73333333333335 177.28000000000003 0
    endloop
  endfacet
  facet normal 0 0 -1
    outer loop
      vertex 146.73333333333335 132.96000000000004 0
      vertex 148.73333333333335 177.28000000000003 0
      vertex 148.73333333333335 176.28000000000003 0
    endloop
  endfacet
  facet normal -1 0 0
    outer loop
      vertex 146.73333333333335 133.96000000000004 0
      vertex 146.73333333333335 133.96000000000004 40
      vertex 146.73333333333335 176.28000000000003 0
    endloop
  endfacet
  facet normal 1 0 0
    outer loop
      vertex 148.73333333333335 133.96000000000004 0
      vertex 148.73333333333335 176.28000000000003 0
      vertex 148.73333333333335 176.28000000000003 40
    endloop
  endfacet
  facet normal 0 0 -1
    outer loop
      vertex 146.73333333333335 176.28000000000003 0
      vertex 146.73333333333335 177.28000000000003 0
      vertex 148.73333333333335 177.28000000000003 0
    endloop
  endfacet
  facet normal 1 0 0
    outer loop
      vertex 148.73333333333335 133.96000000000004 0
      vertex 148.73333333333335 176.28000000000003 40
      vertex 148.73333333333335 133.96000000000004 40
    endloop
  endfacet
  facet normal -1 0 0
    outer loop
      vertex 146.73333333333335 176.28000000000003 0
      vertex 146.73333333333335 133.96000000000004 40
      vertex 146.73333333333335 176.28000000000003 40
    endloop
  endfacet
  facet normal 0 0 1
    outer loop
      vertex 146.73333333333335 132.96000000000004 40
      vertex 148.73333333333335 132.96000000000004 40
      vertex 146.73333333333335 133.96000000000004 40
    endloop
  endfacet
  facet normal 0 0 1
    outer loop
      vertex 148.73333333333335 132.96000000000004 40
      vertex 146.73333333333335 176.28000000000003 40
      vertex 146.73333333333335 133.96000000000004 40
    endloop
  endfacet
  facet normal 0 0 1
    outer loop
      vertex 148.73333333333335 132.96000000000004 40
      vertex 148.73333333333335 133.96000000000004 40
      vertex 146.73333333333335 177.28000000000003 40
    endloop
  endfacet
  facet normal 0 0 1
    outer loop
      vertex 148.73333333333335 132.96000000000004 40
      vertex 146.73333333333335 177.28000000000003 40
      vertex 146.73333333333335 176.28000000000003 40
    endloop
  endfacet
  facet normal 0 0 1
    outer loop
      vertex 148.73333333333335 133.96000000000004 40
      vertex 148.73333333333335 176.28000000000003 40
      vertex 146.73333333333335 177.28000000000003 40
    endloop
  endfacet
  facet normal 0 0 1
    outer loop
      vertex 146.73333333333335 177.28000000000003 40
      vertex 148.73333333333335 176.28000000000003 40
      vertex 148.73333333333335 177.28000000000003 40
    endloop
  endfacet
  facet normal 0 0 -1
    outer loop
      vertex 109.80000000000001 132.96000000000004 0
      vertex 109.80000000000001 133.96000000000004 0
      vertex 111.80000000000001 177.28000000000003 0
    endloop
  endfacet
  facet normal 0 0 -1
    outer loop
      vertex 109.80000000000001 133.96000000000004 0
      vertex 109.80000000000001 176.28000000000003 0
      vertex 111.80000000000001 177.28000000000003 0
    endloop
  endfacet
  facet normal -1 0 0
    outer loop
      vertex 109.80000000000001 133.96000000000004 0
      vertex 109.80000000000001 133.96000000000004 40
      vertex 109.80000000000001 176.28000000000003 0
    endloop
  endfacet
  facet normal 0 0 -1
    outer loop
      vertex 109.80000000000001 176.28000000000003 0
      vertex 109.80000000000001 177.28000000000003 0
      vertex 111.80000000000001 177.28000000000003 0
    endloop
  endfacet
  facet normal -1 0 0
    outer loop
      vertex 109.80000000000001 176.28000000000003 0
      vertex 109.80000000000001 133.96000000000004 40
      vertex 109.80000000000001 176.28000000000003 40
    endloop
  endfacet
  facet normal 0 0 1
    outer loop
      vertex 109.80000000000001 132.96000000000004 40
      vertex 111.80000000000001 132.96000000000004 40
      vertex 109.80000000000001 133.96000000000004 40
    endloop
  endfacet
  facet normal 0 0 1
    outer loop
      vertex 109.80000000000001 133.96000000000004 40
      vertex 111.80000000000001 132.96000000000004 40
      vertex 109.80000000000001 176.28000000000003 40
    endloop
  endfacet
  facet normal 0 0 1
    outer loop
      vertex 109.80000000000001 176.28000000000003 40
      vertex 111.80000000000001 132.96000000000004 40
      vertex 109.80000000000001 177.28000000000003 40
    endloop
  endfacet
  facet normal 0 0 -1
    outer loop
      vertex 109.80000000000001 132.96000000000004 0
      vertex 111.80000000000001 133.96000000000004 0
      vertex 111.80000000000001 132.96000000000004 0
    endloop
  endfacet
  facet normal 0 0 -1
    outer loop
      vertex 109.80000000000001 132.96000000000004 0
      vertex 111.80000000000001 176.28000000000003 0
      vertex 111.80000000000001 133.96000000000004 0
    endloop
  endfacet
  facet normal 0 0 -1
    outer loop
      vertex 109.80000000000001 132.96000000000004 0
      vertex 111.80000000000001 177.28000000000003 0
      vertex 111.80000000000001 176.28000000000003 0
    endloop
  endfacet
  facet normal 1 0 0
    outer loop
      vertex 111.80000000000001 133.96000000000004 0
      vertex 111.80000000000001 176.28000000000003 0
      vertex 111.80000000000001 176.28000000000003 40
    endloop
  endfacet
  facet normal 1 0 0
    outer loop
      vertex 111.80000000000001 133.96000000000004 0
      vertex 111.80000000000001 176.28000000000003 40
      vertex 111.80000000000001 133.96000000000004 40
    endloop
  endfacet
  facet normal 0 0 1
    outer loop
      vertex 109.80000000000001 177.28000000000003 40
      vertex 111.80000000000001 132.96000000000004 40
      vertex 111.80000000000001 133.96000000000004 40
    endloop
  endfacet
  facet normal 0 0 1
    outer loop
      vertex 109.80000000000001 177.28000000000003 40
      vertex 111.80000000000001 133.96000000000004 40
      vertex 111.80000000000001 176.28000000000003 40
    endloop
  endfacet
  facet normal 0 0 1
    outer loop
      vertex 109.80000000000001 177.28000000000003 40
      vertex 111.80000000000001 176.28000000000003 40
      vertex 111.80000000000001 177.28000000000003 40
    endloop
  endfacet
  facet normal 0 0 -1
    outer loop
      vertex 72.86666666666667 221.60000000000002 0
      vertex 74.86666666666667 178.28000000000003 0
      vertex 72.86666666666667 178.28000000000003 0
    endloop
  endfacet
  facet normal 0 0 -1
    outer loop
      vertex 72.86666666666667 221.60000000000002 0
      vertex 74.86666666666667 221.60000000000002 0
      vertex 74.86666666666667 178.28000000000003 0
    endloop
  endfacet
  facet normal 1 0 0
    outer loop
      vertex 74.86666666666667 221.60000000000002 0
      vertex 74.86666666666667 178.28000000000003 40
      vertex 74.86666666666667 178.28000000000003 0
    endloop
  endfacet
  facet normal -1 0 0
    outer loop
      vertex 72.86666666666667 221.60000000000002 0
      vertex 72.86666666666667 178.28000000000003 0
      vertex 72.86666666666667 221.60000000000002 40
    endloop
  endfacet
  facet normal 0 1 0
    outer loop
      vertex 72.86666666666667 221.60000000000002 0
      vertex 72.86666666666667 221.60000000000002 40
      vertex 74.86666666666667 221.60000000000002 0
    endloop
  endfacet
  facet normal -1 0 0
    outer loop
      vertex 72.86666666666667 221.60000000000002 40
      vertex 72.86666666666667 178.28000000000003 0
      vertex 72.86666666666667 178.28000000000003 40
    endloop
  endfacet
  facet normal 1 0 0
    outer loop
      vertex 74.86666666666667 221.60000000000002 0
      vertex 74.86666666666667 221.60000000000002 40
      vertex 74.86666666666667 178.28000000000003 40
    endloop
  endfacet
  facet normal 0 1 0
    outer loop
      vertex 74.86666666666667 221.60000000000002 0
      vertex 72.86666666666667 221.60000000000002 40
      vertex 74.86666666666667 221.60000000000002 40
    endloop
  endfacet
  facet normal 0 0 1
    outer loop
      vertex 74.86666666666667 221.60000000000002 40
      vertex 72.86666666666667 178.28000000000003 40
      vertex 74.86666666666667 178.28000000000003 40
    endloop
  endfacet
  facet normal 0 0 1
    outer loop
      vertex 72.86666666666667 221.60000000000002 40
      vertex 72.86666666666667 178.28000000000003 40
      vertex 74.86666666666667 221.60000000000002 40
    endloop
  endfacet
  facet normal 0 0 -1
    outer loop
      vertex 109.80000000000001 221.60000000000002 0
      vertex 111.80000000000001 178.28000000000003 0
      vertex 109.80000000000001 178.28000000000003 0
    endloop
  endfacet
  facet normal -1 0 0
    outer loop
      vertex 109.80000000000001 221.60000000000002 0
      vertex 109.80000000000001 178.28000000000003 0
      vertex 109.80000000000001 221.60000000000002 40
    endloop
  endfacet
  facet normal 0 1 0
    outer loop
      vertex 109.80000000000001 221.60000000000002 0
      vertex 109.80000000000001 221.60000000000002 40
      vertex 111.80000000000001 221.60000000000002 0
    endloop
  endfacet
  facet normal -1 0 0
    outer loop
      vertex 109.80000000000001 221.60000000000002 40
      vertex 109.80000000000001 178.28000000000003 0
      vertex 109.80000000000001 178.28000000000003 40
    endloop
  endfacet
  facet normal 0 0 1
    outer loop
      vertex 109.80000000000001 221.60000000000002 40
      vertex 109.80000000000001 178.28000000000003 40
      vertex 111.80000000000001 221.60000000000002 40
    endloop
  endfacet
  facet normal 0 0 -1
    outer loop
      vertex 109.80000000000001 221.60000000000002 0
      vertex 111.80000000000001 221.60000000000002 0
      vertex 111.80000000000001 178.28000000000003 0
    endloop
  endfacet
  facet normal 1 0 0
    outer loop
      vertex 111.80000000000001 221.60000000000002 0
      vertex 111.80000000000001 178.28000000000003 40
      vertex 111.80000000000001 178.28000000000003 0
    endloop
  endfacet
  facet normal 1 0 0
    outer loop
      vertex 111.80000000000001 221.60000000000002 0
      vertex 111.80000000000001 221.60000000000002 40
      vertex 111.80000000000001 178.28000000000003 40
    endloop
  endfacet
  facet normal 0 1 0
    outer loop
      vertex 111.80000000000001 221.60000000000002 0
      vertex 109.80000000000001 221.60000000000002 40
      vertex 111.80000000000001 221.60000000000002 40
    endloop
  endfacet
  facet normal 0 0 1
    outer loop
      vertex 111.80000000000001 221.60000000000002 40
      vertex 109.80000000000001 178.28000000000003 40
      vertex 111.80000000000001 178.28000000000003 40
    endloop
  endfacet
endsolid OpenSCAD_Model
