999
DXF from OpenSCAD
  0
SECTION
  2
HEADER
  9
$ACADVER
  1
AC1006
  9
$INSBASE
 10
0.0
 20
0.0
 30
0.0
  9
$EXTMIN
 10
0
 20
0
  9
$EXTMAX
 10
221.6
 20
221.6
  9
$LINMIN
 10
0
 20
0
  9
$LINMAX
 10
221.6
 20
221.6
  0
ENDSEC
  0
SECTION
  2
TABLES
  0
TABLE
  2
LTYPE
 70
1
  0
LTYPE
  2
CONTINUOUS
 70
64
  3
Solid line
 72
65
 73
0
 40
0.000000
  0
ENDTAB
  0
TABLE
  2
LAYER
 70
6
  0
LAYER
  2
0
 70
64
 62
7
  6
CONTINUOUS
  0
ENDTAB
  0
TABLE
  2
STYLE
 70
0
  0
ENDTAB
  0
ENDSEC
  0
SECTION
  2
BLOCKS
  0
ENDSEC
  0
SECTION
  2
ENTITIES
  0
LWPOLYLINE
100
AcDbEntity
  8
0
100
AcDbPolyline
 90
48
 70
1
 10
74.8667
 20
43.32
 10
109.8
 20
43.32
 10
109.8
 20
0
 10
111.8
 20
0
 10
111.8
 20
43.32
 10
146.733
 20
43.32
 10
146.733
 20
0
 10
148.733
 20
0
 10
148.733
 20
43.32
 10
221.6
 20
43.32
 10
221.6
 20
45.32
 10
148.733
 20
45.32
 10
148.733
 20
87.64
 10
221.6
 20
87.64
 10
221.6
 20
89.64
 10
148.733
 20
89.64
 10
148.733
 20
131.96
 10
221.6
 20
131.96
 10
221.6
 20
133.96
 10
148.733
 20
133.96
 10
148.733
 20
176.28
 10
221.6
 20
176.28
 10
221.6
 20
178.28
 10
111.8
 20
178.28
 10
111.8
 20
221.6
 10
109.8
 20
221.6
 10
109.8
 20
178.28
 10
74.8667
 20
178.28
 10
74.8667
 20
221.6
 10
72.8667
 20
221.6
 10
72.8667
 20
178.28
 10
0
 20
178.28
 10
0
 20
176.28
 10
72.8667
 20
176.28
 10
72.8667
 20
133.96
 10
0
 20
133.96
 10
0
 20
131.96
 10
72.8667
 20
131.96
 10
72.8667
 20
89.64
 10
0
 20
89.64
 10
0
 20
87.64
 10
72.8667
 20
87.64
 10
72.8667
 20
45.32
 10
0
 20
45.32
 10
0
 20
43.32
 10
72.8667
 20
43.32
 10
72.8667
 20
0
 10
74.8667
 20
0
  0
LWPOLYLINE
100
AcDbEntity
  8
0
100
AcDbPolyline
 90
4
 70
1
 10
74.8667
 20
133.96
 10
74.8667
 20
176.28
 10
109.8
 20
176.28
 10
109.8
 20
133.96
  0
LWPOLYLINE
100
AcDbEntity
  8
0
100
AcDbPolyline
 90
4
 70
1
 10
111.8
 20
133.96
 10
111.8
 20
176.28
 10
146.733
 20
176.28
 10
146.733
 20
133.96
  0
LWPOLYLINE
100
AcDbEntity
  8
0
100
AcDbPolyline
 90
4
 70
1
 10
74.8667
 20
89.64
 10
74.8667
 20
131.96
 10
109.8
 20
131.96
 10
109.8
 20
89.64
  0
LWPOLYLINE
100
AcDbEntity
  8
0
100
AcDbPolyline
 90
4
 70
1
 10
111.8
 20
89.64
 10
111.8
 20
131.96
 10
146.733
 20
131.96
 10
146.733
 20
89.64
  0
LWPOLYLINE
100
AcDbEntity
  8
0
100
AcDbPolyline
 90
4
 70
1
 10
74.8667
 20
45.32
 10
74.8667
 20
87.64
 10
109.8
 20
87.64
 10
109.8
 20
45.32
  0
LWPOLYLINE
100
AcDbEntity
  8
0
100
AcDbPolyline
 90
4
 70
1
 10
111.8
 20
45.32
 10
111.8
 20
87.64
 10
146.733
 20
87.64
 10
146.733
 20
45.32
  0
ENDSEC
  0
EOF
